<svg xmlns="http://www.w3.org/2000/svg" viewBox="0 0 140.32 39.77"><defs><style>.cls-1{fill:#525a68;}.cls-2{fill:#5c0d34;}.cls-3{fill:#757f8b;}</style></defs><title>QATAR-logo</title><g id="Layer_2" data-name="Layer 2"><g id="Layer_1-2" data-name="Layer 1"><path class="cls-1" d="M25.61,35.36H23.7l1-2.36ZM26.79,38h1.47c-.44-.88-1-2.35-1.47-3.23-.29-.89-.88-2.21-1.32-3.53h-.59c-.3.73-.74,2.06-1.77,4.26L21.94,38h.88a19.38,19.38,0,0,1,.73-2.06h2.36l.44,1Z"/><path class="cls-1" d="M29,33.59A39.09,39.09,0,0,1,28.85,38h1.47a18.41,18.41,0,0,1-.15-3.23,23.53,23.53,0,0,1,.15-3.39H28.85A12.53,12.53,0,0,1,29,33.59"/><path class="cls-1" d="M34.88,34.77A1.78,1.78,0,0,0,36.5,33a1.33,1.33,0,0,0-.45-1,1.78,1.78,0,0,0-1.47-.44H31.94v2.65a35.13,35.13,0,0,1-.15,4h1.32V35.06h.3A24.79,24.79,0,0,1,35,37.41a2.88,2.88,0,0,0,.44.74h1.61c-.58-.74-.88-1.18-1.61-2.21-.15-.14-.3-.58-.44-.73Zm-1.62-2.94H34a1.1,1.1,0,0,1,.88.29,1.34,1.34,0,0,1,.44,1A1.22,1.22,0,0,1,34,34.47h-.74Z"/><path class="cls-1" d="M39.88,35.8c-.44-1.33-1-3.24-1.33-4.42H37.08c.45,1,.74,1.92,1,2.65.44,1.33.74,2.06,1,3.24l.3.73h.73c.15-.44.3-1.17.44-1.47.44-1.17.44-1.32.89-2.65l.29-.73a9.39,9.39,0,0,1,.44,1.18c.15.29.59,1.76.74,2.05a18,18,0,0,0,.58,1.77h.89c.44-1.18.44-1.32.88-2.79s.88-2.36,1.47-3.83h-.88c-.3,1.33-.59,1.91-.74,2.65-.44,1.32-.44,1.47-.73,2.2-.3-.88-.59-1.61-.89-2.5a12.45,12.45,0,0,1-1-2.5h-.89a42.3,42.3,0,0,1-1.47,4.27l-.14.59Z"/><path class="cls-1" d="M49.58,35.36H47.67l1-2.36ZM50.76,38h1.47c-.44-.88-1-2.35-1.47-3.23-.29-.89-.88-2.21-1.32-3.53h-.59c-.3.73-.74,2.06-1.77,4.26L45.91,38h.88a17.6,17.6,0,0,1,.74-2.06h2.35l.44,1Z"/><path class="cls-1" d="M54.73,35.36c0-.15,0-.15.15-.3.44-.73.73-1.47,1.17-2.06.15-.29.89-1.32,1-1.62h-1c-.73,1.48-.88,1.92-1.61,3.24-.89-1.47-1.18-2.21-1.77-3.24H51.2c.44.89,1.33,2.21,1.77,3.09l.58,1v2.65h1.33V35.36Z"/><path class="cls-1" d="M57.67,36.53a1.42,1.42,0,0,1-.29,1,4.29,4.29,0,0,0,1.76.44,2.22,2.22,0,0,0,2.5-2.06,1.78,1.78,0,0,0-.44-1.32,3.6,3.6,0,0,0-1.32-.74c-.88-.29-1.33-.58-1.33-1.17a1.05,1.05,0,0,1,1.18-1,1.27,1.27,0,0,1,1.32.88h.15l.3-.88a4.3,4.3,0,0,0-1.62-.44c-1.77,0-2.21,1-2.21,1.91a1.83,1.83,0,0,0,1.18,1.76c.29.15.73.3,1,.45a1.23,1.23,0,0,1,.73,1.17c0,.74-.44,1.18-1.32,1.18-.59,0-1-.15-1.62-1.18Z"/><path class="cls-2" d="M3.85,18.59c0-7.35,4-9.26,6.91-9.26,4.71,0,6.77,4,6.77,8.23A11.68,11.68,0,0,1,16.05,24,6.54,6.54,0,0,1,10.76,27c-5.29,0-6.91-5.14-6.91-8.38m14.56,15a22.2,22.2,0,0,1,3.23-1.76L15,27.71c4-1.47,6.61-5,6.61-10,0-6.91-5.29-10-10.73-10C5,7.71,0,10.94,0,18.3a9.56,9.56,0,0,0,2.64,7.2,10.9,10.9,0,0,0,8.09,2.94h1Z"/><path class="cls-2" d="M35.17,19.91c-.88,0-1.76.15-2.64.15-1,0-2.06-.15-3.09-.15l2.94-7.2ZM38.41,28c.59,0,1.32-.14,2.2-.14s1.77.14,2.21.14c-1.32-2.79-3.24-7.2-4.27-9.7s-2.79-6.47-4.11-10.44a2,2,0,0,1-.89.14,3,3,0,0,1-1-.14c-.74,2.35-2.36,6.17-5.3,12.79l-3.38,7.5c.44,0,.88-.15,1.32-.15s1,.15,1.33.15a43,43,0,0,1,2.35-6.32c1.18,0,2.35-.15,3.53-.15a30,30,0,0,1,3.67.15l1.18,3.08Z"/><path class="cls-2" d="M51.35,13.3V10.06c2.06,0,4.12,0,5.73.15a3,3,0,0,1-.14-1A4.34,4.34,0,0,1,57.08,8a68.9,68.9,0,0,1-7.64.3c-2.21,0-5.44,0-7.8-.15a2.44,2.44,0,0,1,.15,1,2.48,2.48,0,0,1-.15,1c1.47-.15,4.27-.15,4.56-.15h1.47V21.38c0,2.21-.14,4.42-.29,6.62a12,12,0,0,1,1.91-.14c.29,0,1.32.14,2.06.14V13.3Z"/><path class="cls-2" d="M67.53,19.91c-.89,0-1.77.15-2.65.15s-2.06-.15-3.09-.15l2.94-7.2ZM70.76,28c.59,0,1.32-.14,2.21-.14s1.76.14,2.2.14c-1.32-2.79-3.23-7.2-4.26-9.7s-2.8-6.47-4.12-10.44a1.94,1.94,0,0,1-.88.14,3,3,0,0,1-1-.14c-.74,2.35-2.35,6.17-5.3,12.79l-3.38,7.5c.44,0,.88-.15,1.33-.15s1,.15,1.32.15a43,43,0,0,1,2.35-6.32c1.18,0,2.35-.15,3.53-.15a30.2,30.2,0,0,1,3.68.15l1.17,3.08Z"/><path class="cls-2" d="M86.94,18.15c2.64-.44,5-2.21,5-5.44a4.55,4.55,0,0,0-1.33-3.24C89.44,8.3,88,8,86.05,8c-.73,0-4,.15-4.85.15C79.73,8.15,79,8,78.26,8c.15,3.68.15,4.12.15,7.94,0,5.59,0,6.18-.3,11.92a8.91,8.91,0,0,1,2.06-.15c.74,0,1.33.15,1.91.15,0-.74-.14-4.56-.14-5.3v-4h.73c1.62,2.21,3.38,4.71,4.86,7.06.44.73,1,1.76,1.47,2.35a11.65,11.65,0,0,1,2.35-.14c1,0,1.76.14,2.65.14-1.77-2.35-2.65-3.38-4.86-6.47-.44-.59-1-1.62-1.47-2.2ZM82.08,9.62c.45,0,1.47-.15,2.06-.15a4,4,0,0,1,2.65.74C87.82,10.94,88,12,88,13.3a3.69,3.69,0,0,1-4,4,8.87,8.87,0,0,1-2.06-.15V9.62Z"/><path class="cls-3" d="M130.32,18.15a42.7,42.7,0,0,1-6.32.44,7.25,7.25,0,0,1-1.47-1c4.41.3,7.79.44,7.79.59"/><path class="cls-3" d="M127.67,11.83a31,31,0,0,1-5.29.44,4.52,4.52,0,0,1,1.47-.74,23.22,23.22,0,0,1,3.82.3"/><path class="cls-3" d="M104.14,25.5h-3.67c-1.47,0-2.65-.44-2.65-1s1.18-1,2.65-1h5c-.89,1.33-1.18,1.92-1.33,2.06h0"/><path class="cls-3" d="M104.88,26.83a8.22,8.22,0,0,0,1.62,1.61s.29.3.88,0a5,5,0,0,0,2.06-1.61c2.06,0,4.11.14,6.17.14a10.05,10.05,0,0,1,.89,1.47c-5.89.15-12.21.3-15.45.3-1.32,0-2.5-.44-2.5-.88s1-.89,2.5-.89a32.46,32.46,0,0,1,3.83-.14h0"/><path class="cls-3" d="M102.67,31.68c-1.17,0-2.2-.44-2.2-.88s1-.89,2.2-.89c3.24,0,9.71.15,15.3.3a5.35,5.35,0,0,1,.73,1.17c-5.73.3-12.65.3-16,.3"/><path class="cls-3" d="M121.2,34.33c-4.7.14-12.79.29-16,.29-.88,0-1.76-.29-1.76-.59s.73-.59,1.76-.59c3.24,0,10.74.15,15.44.3.15.14.3.44.59.59"/><path class="cls-3" d="M109,36.09c2.79,0,11.17.15,11.17.44S111.79,37,109,37c-.59,0-1-.14-1-.44s.44-.44,1-.44"/><path class="cls-3" d="M109,19.18c-3.53,0-6.62.15-8.53.15-1.47,0-2.65-.45-2.65-1s1.18-1,2.65-1c2.35,0,6.17,0,10.29.14A10.1,10.1,0,0,0,109,19.18"/><path class="cls-3" d="M126.05,14.62c2.06.15,3.39.29,3.39.29a16.31,16.31,0,0,1-4,.45c.44-.3.58-.59.58-.74"/><path class="cls-3" d="M101.2,15.94c-1.32,0-2.5-.44-2.5-.88,0-.59,1-.88,2.5-.88,2.8,0,7.8,0,12.8.15-.59.58-1.18,1-1.77,1.61h-11"/><path class="cls-3" d="M116.35,12.56c-5.15.15-10.74.15-13.68.15-1.17,0-2.2-.44-2.2-.88s1-.89,2.2-.89c3.24,0,9.71.15,15.3.3-.3.14-.59.44-.89.59s-.58.44-.73.73"/><path class="cls-3" d="M105,9.33c-.89,0-1.77-.3-1.77-.59s.74-.59,1.77-.59c3.67-.15,12.5,0,16.91.29-.3.15-.59.44-.89.59-4.55.15-12.64.3-16,.3"/><path class="cls-3" d="M100.17,22.41c-1.47,0-2.64-.44-2.64-1s1.17-1,2.64-1c1.77,0,4.56,0,7.65.14-.59.74-1,1.33-1.47,1.91h-6.18"/><path class="cls-3" d="M108,6.24c0-.3.44-.44,1-.44,2.79,0,11.17.14,11.17.44s-8.38.44-11.17.44c-.59,0-1-.3-1-.44"/><path class="cls-2" d="M130.61,20.65v1.47c-4.85.15-9.56.44-9.56.88s4.56.59,9.42.88c-.15.59-.15,1.18-.3,1.62-4.7.15-9.12.44-9.12.74s4.12.59,8.68.73a9.46,9.46,0,0,1-.73,1.77c-4,.14-7.21.44-7.21.73s2.79.44,6.47.74c-.15.29-.44.59-.59.88a6.11,6.11,0,0,0-.73,1c-2.21.15-3.83.29-3.83.59,0,.15,1,.29,2.8.44a19,19,0,0,1-3.24,2.5s-1.47-1.32-2.79-2.79a59,59,0,0,1-4-5.74c-.59-.74-.88-1-1.62-.74a9.13,9.13,0,0,1-2.21.45c-.29,0-.44-.15,0-.3a6.19,6.19,0,0,0,3.53-3.23c1.18-2.21.15-5.44.15-5.44a4.88,4.88,0,0,1-1.32,2.35,5,5,0,0,0-.74-4L113.11,18s-.29,0-.88.59a4.4,4.4,0,0,0-.88,1.32,1.6,1.6,0,0,0,1.18-.29,23.44,23.44,0,0,1-2.8,6.76,4.2,4.2,0,0,1-2.35,2.06c-.74.3-.88,0-.88,0l-1.62-1.61H105c.29,0,1-.59,1-.89.15-.29.15-.44,0-.44s-.14.15-.88.59-1,.15-1.17-.15c-.15-.14,0-.44.14-.58s3.53-6.62,12.8-13.53C129,2.86,136.79.5,137.23.21s.74-.3.88-.15a.54.54,0,0,1,.15.44c0,.15-.15.15-.59.44a86.87,86.87,0,0,0-13.09,7.5,84.55,84.55,0,0,0-7.5,4.56c-.29.15-.14.44.15.3,6.47-4.27,14-7.21,22.21-9.56.44-.15.59-.15.73,0s.15.14.15.29-.15.3-.44.3c-9,3.38-15.44,6.32-19.71,9.26,0,0-.44.29-.44.59s.3.15.3.15c2,0,5,.14,6.32.29,0,0-.15.74-1.47,1.18a6.31,6.31,0,0,1-2.8.29c-.14,0-.44.15-.14.44-.3.3,1.61,3.38,8.67,4.12"/><path class="cls-2" d="M66.05,37H64.88s-.15-.73.29-1a4.35,4.35,0,0,1,.88-.44Zm5.59-2.79a7.4,7.4,0,0,0-1.17.88c-.44.44.14.59.14.59V37H67.08V32.12a11.73,11.73,0,0,0-1.32,1.32c-.15.15.29.3.29.3v.44s-.44.29-1.17.73-1,.89-1,1.33c0,.29-.15,1.76-.15,1.76h8.09V34.18Zm-7.2-1.77c.44,0,.73-.14.73-.44s-.14-.59-.73-.59c-.44,0-.59.15-.59.59s.29.44.59.44m1.47,0c.44,0,.73-.14.73-.44s-.14-.59-.73-.59c-.44,0-.59.15-.59.59.15.3.29.44.59.44m2.35,6c-.44,0-.59.15-.59.59s.15.44.59.44S69,39.33,69,39c-.15-.44-.3-.59-.74-.59m1.47,0c-.44,0-.59.15-.59.59s.15.44.59.44.74-.14.74-.44-.3-.59-.74-.59m17.35-6c.45,0,.74-.14.74-.44s-.15-.59-.74-.59c-.44,0-.58.15-.58.59s.14.44.58.44m1.47,0c.45,0,.74-.14.74-.44s-.15-.59-.74-.59c-.44,0-.58.15-.58.59s.14.44.58.44m4.27.15c-.15.15-.15.44.15.44v5.15h1.17V31.83c0-.15-1.17.44-1.32.73m-4.56,2.8h-.73c0-.45.73-.59.73-.59Zm-4.85.88V37H76.94V35.8c.14-.44.44-.44.88-.44h4.71c1,0,.88.58.88.88m7.5-3.38V37H89.44V33.3s-.3.14-.74.29-1.91.88-1.91,1.62v1h1.62V37H84.73v-.88a1.94,1.94,0,0,0-1.91-1.91H78.55c-.73,0-1.17.15-1.32.44V31.53a7.78,7.78,0,0,0-1.18.88c-.44.45,0,.59,0,.59v4H74.58V33.59s-1,.74-1.32.88-.15.44.15.44V38a1.05,1.05,0,0,1-1.47,1s-.3,0,0,.3a1.34,1.34,0,0,0,1,.44A1.74,1.74,0,0,0,74.73,38h17.8V31.68s-1,.73-1.33.88c-.59.15-.59.3-.29.3"/></g></g></svg>